HIERARCHY
ROOT Hips
{
	OFFSET -21.947001 39.810204 44.525997
	CHANNELS 6 Xposition Yposition Zposition Zrotation Xrotation Yrotation
	JOINT Chest
	{
		OFFSET -0.201599 0.334099 6.453201
		CHANNELS 6 Xposition Yposition Zposition Zrotation Xrotation Yrotation
		JOINT Chest2
		{
			OFFSET 0.000000 0.000000 3.568001
			CHANNELS 6 Xposition Yposition Zposition Zrotation Xrotation Yrotation
			JOINT Neck
			{
				OFFSET 0.000000 0.000000 8.296402
				CHANNELS 6 Xposition Yposition Zposition Zrotation Xrotation Yrotation
				JOINT Head
				{
					OFFSET 0.000000 0.000000 2.173901
					CHANNELS 6 Xposition Yposition Zposition Zrotation Xrotation Yrotation
					End Site
					{
						OFFSET 0.000000 0.000000 7.891998
					}
				}
			}
			JOINT LeftCollar
			{
				OFFSET 1.927601 0.221401 6.049000
				CHANNELS 6 Xposition Yposition Zposition Zrotation Xrotation Yrotation
				JOINT LeftShoulder
				{
					OFFSET 4.959700 0.000000 0.000000
					CHANNELS 6 Xposition Yposition Zposition Zrotation Xrotation Yrotation
					JOINT LeftElbow
					{
						OFFSET 0.000000 0.000000 -8.654202
						CHANNELS 6 Xposition Yposition Zposition Zrotation Xrotation Yrotation
						JOINT LeftWrist
						{
							OFFSET 0.000000 0.000000 -13.864101
							CHANNELS 6 Xposition Yposition Zposition Zrotation Xrotation Yrotation
							End Site
							{
								OFFSET 0.000000 0.000000 -2.173901
							}
						}
					}
				}
			}
			JOINT RightCollar
			{
				OFFSET -3.155701 -0.764999 6.687801
				CHANNELS 6 Xposition Yposition Zposition Zrotation Xrotation Yrotation
				JOINT RightShoulder
				{
					OFFSET -3.592899 0.000000 0.000000
					CHANNELS 6 Xposition Yposition Zposition Zrotation Xrotation Yrotation
					JOINT RightElbow
					{
						OFFSET 0.000000 0.000000 -10.352398
						CHANNELS 6 Xposition Yposition Zposition Zrotation Xrotation Yrotation
						JOINT RightWrist
						{
							OFFSET 0.000000 0.000000 -12.750301
							CHANNELS 6 Xposition Yposition Zposition Zrotation Xrotation Yrotation
							End Site
							{
								OFFSET 0.000000 0.000000 -2.173901
							}
						}
					}
				}
			}
		}
	}
	JOINT LeftHip
	{
		OFFSET 2.460600 -0.518101 -2.735500
		CHANNELS 6 Xposition Yposition Zposition Zrotation Xrotation Yrotation
		JOINT LeftKnee
		{
			OFFSET 0.000000 -0.000004 -17.005899
			CHANNELS 6 Xposition Yposition Zposition Zrotation Xrotation Yrotation
			JOINT LeftAnkle
			{
				OFFSET 0.000000 0.000000 -19.194401
				CHANNELS 6 Xposition Yposition Zposition Zrotation Xrotation Yrotation
				End Site
				{
					OFFSET 0.000000 -8.134600 0.000000
				}
			}
		}
	}
	JOINT RightHip
	{
		OFFSET -3.115499 -0.679600 -2.320301
		CHANNELS 6 Xposition Yposition Zposition Zrotation Xrotation Yrotation
		JOINT RightKnee
		{
			OFFSET 0.000000 -0.000004 -17.680401
			CHANNELS 6 Xposition Yposition Zposition Zrotation Xrotation Yrotation
			JOINT RightAnkle
			{
				OFFSET 0.000000 0.000000 -16.993797
				CHANNELS 6 Xposition Yposition Zposition Zrotation Xrotation Yrotation
				End Site
				{
					OFFSET 0.000000 -8.842300 0.000000
				}
			}
		}
	}
}
MOTION
Frames: 10
Frame Time: 0.041667
-19.640810 66.233704 4.701595 4030.943782 -57.792498 -4.019232 -0.201600 0.334099 6.453203 -26.981342 34.976873 13.867212 0.000001 0.000002 3.567995 2.227809 -6.193929 -0.620653 -0.000007 0.000001 8.296391 131.489133 -187.797417 217.280625 -0.000001 -0.000007 2.173904 -1.551983 9.672626 -3.651338 1.927595 0.221406 6.048994 -21.020968 1.537823 7.895125 4.959693 -0.000011 0.000002 142.784176 196.296249 86.800127 0.000004 0.000007 -8.654202 65.941829 -17.029620 16.470952 -0.000000 -0.000004 -13.864101 3873.229578 -159.275900 238.704730 -3.155709 -0.764999 6.687795 43.699059 10.272733 -4.916514 -3.592899 -0.000007 0.000008 32.894714 -22.339785 40.583673 0.000001 0.000000 -10.352392 -181.497715 -126.976509 -163.714129 0.000008 -0.000003 -12.750304 80.345844 -4.498154 68.242360 2.460592 -0.518103 -2.735502 91.585030 -35.247393 70.918886 -0.000002 -0.000002 -17.005901 -165.564209 166.729972 -174.919164 -0.000001 0.000007 -19.194401 458.503332 97.741728 -140.111181 -3.115503 -0.679603 -2.320299 -78.290292 -44.083110 -78.044644 -0.000009 -0.000010 -17.680393 -53.873148 166.550147 -236.401481 0.000002 0.000001 -16.993790 346.867387 55.073687 -99.487238
-19.642099 66.232300 4.700596 4030.979627 -57.764904 -3.997157 -0.201606 0.334095 6.453198 -26.918267 34.957123 13.804308 0.000005 0.000008 3.568002 2.195497 -6.179810 -0.622597 -0.000008 0.000010 8.296395 131.460528 -187.761012 217.271446 -0.000002 -0.000005 2.173903 -1.520411 9.577276 -3.730730 1.927594 0.221408 6.048998 -21.756266 1.613956 7.967600 4.959698 -0.000005 0.000005 143.434341 196.344716 86.712318 0.000004 0.000004 -8.654200 66.030410 -17.061423 16.443646 -0.000007 -0.000001 -13.864102 3873.235698 -159.156686 238.704566 -3.155709 -0.764999 6.687802 43.675067 10.310645 -4.897437 -3.592903 -0.000004 0.000008 32.910529 -22.332243 40.568670 -0.000001 -0.000004 -10.352399 -181.459821 -126.986932 -163.657794 0.000010 -0.000003 -12.750301 80.376375 -4.500837 68.059140 2.460601 -0.518104 -2.735509 91.557962 -35.258239 70.918667 -0.000007 -0.000000 -17.005905 -165.646567 166.708566 -174.934573 -0.000005 -0.000008 -19.194405 458.616877 97.694088 -140.116017 -3.115494 -0.679601 -2.320307 -78.324682 -44.063791 -78.070449 -0.000003 -0.000005 -17.680401 -53.769462 166.576539 -236.369242 -0.000001 0.000001 -16.993786 346.876375 55.016508 -99.874086
-19.642904 66.230698 4.700100 4031.011538 -57.736074 -3.979930 -0.201595 0.334101 6.453207 -26.860728 34.928577 13.748083 -0.000003 -0.000003 3.568004 2.169785 -6.176097 -0.624602 -0.000013 -0.000002 8.296398 131.425257 -187.737216 217.267088 -0.000002 -0.000000 2.173908 -1.488423 9.585280 -3.683165 1.927594 0.221402 6.048997 -21.769305 1.650598 7.957082 4.959700 -0.000005 0.000008 143.415080 196.298489 86.755874 -0.000002 0.000005 -8.654198 66.191008 -17.061857 16.429487 -0.000007 0.000003 -13.864099 3873.212967 -159.036051 238.672546 -3.155713 -0.765000 6.687804 43.654191 10.344036 -4.892629 -3.592890 -0.000002 0.000003 32.904846 -22.336764 40.580964 0.000004 0.000000 -10.352396 -181.409947 -127.017148 -163.647221 0.000007 0.000006 -12.750299 80.339574 -4.471549 68.032168 2.460598 -0.518103 -2.735501 91.531392 -35.262259 70.920019 -0.000003 -0.000010 -17.005905 -165.787297 166.693103 -174.943725 -0.000002 -0.000003 -19.194395 458.873200 97.635935 -140.374553 -3.115493 -0.679596 -2.320296 -78.342850 -44.052975 -78.090885 -0.000009 -0.000010 -17.680399 -53.696697 166.572372 -236.330447 -0.000001 0.000002 -16.993793 346.937082 54.992001 -100.132165
-19.643204 66.228798 4.699593 4031.032520 -57.713985 -3.967802 -0.201610 0.334101 6.453198 -26.799028 34.907519 13.694867 0.000000 0.000002 3.568001 2.147027 -6.182962 -0.627271 0.000006 -0.000001 8.296397 131.381899 -187.718897 217.261952 -0.000005 -0.000008 2.173906 -1.450689 9.590789 -3.636847 1.927610 0.221410 6.049001 -21.808319 1.703468 7.945418 4.959708 0.000001 0.000004 143.415381 196.271278 86.775231 0.000005 0.000000 -8.654202 66.447557 -17.013363 16.426383 0.000003 -0.000000 -13.864101 3873.083139 -159.022691 238.619298 -3.155697 -0.764997 6.687801 43.644451 10.367019 -4.903201 -3.592901 -0.000001 0.000000 32.918650 -22.323440 40.615392 -0.000005 -0.000001 -10.352392 -181.348530 -127.073197 -163.608671 0.000004 -0.000002 -12.750299 80.298354 -4.454203 68.098598 2.460597 -0.518102 -2.735502 91.501674 -35.265056 70.911290 -0.000003 -0.000002 -17.005901 -165.972750 166.686628 -174.944162 -0.000005 0.000005 -19.194401 459.222960 97.633784 -140.805292 -3.115501 -0.679597 -2.320304 -78.354270 -44.044109 -78.099163 -0.000006 -0.000006 -17.680401 -53.610302 166.611919 -236.282799 -0.000003 -0.000005 -16.993792 346.999510 54.953322 -100.373216
-19.643000 66.226898 4.699299 4031.035143 -57.700250 -3.969498 -0.201594 0.334097 6.453211 -26.742856 34.893616 13.658683 -0.000006 -0.000002 3.568004 2.125202 -6.196967 -0.630367 -0.000005 0.000000 8.296401 131.341983 -187.711685 217.251788 0.000000 -0.000000 2.173908 -1.434224 9.594910 -3.585122 1.927597 0.221400 6.048995 -21.856348 1.772872 7.927319 4.959701 -0.000010 -0.000002 143.420476 196.313803 86.775689 -0.000007 0.000002 -8.654203 66.621146 -17.041445 16.474346 -0.000005 -0.000005 -13.864098 3873.109367 -158.999468 238.388137 -3.155706 -0.764997 6.687804 43.672192 10.386159 -4.937495 -3.592899 -0.000003 -0.000001 32.857120 -22.330419 40.630173 -0.000004 -0.000003 -10.352396 -181.264369 -127.074454 -163.562745 -0.000004 -0.000006 -12.750299 80.290581 -4.499463 67.952773 2.460610 -0.518102 -2.735497 91.469238 -35.270025 70.888710 -0.000003 -0.000005 -17.005903 -166.197504 166.682830 -174.939463 0.000002 -0.000008 -19.194401 459.930513 97.657662 -141.521888 -3.115492 -0.679601 -2.320303 -78.360582 -44.032495 -78.097715 -0.000004 -0.000003 -17.680395 -53.559649 166.641016 -236.246025 0.000002 -0.000000 -16.993790 347.067074 54.946655 -100.470669
-19.642904 66.224800 4.699593 4031.028586 -57.699669 -3.977087 -0.201612 0.334098 6.453200 -26.694879 34.896174 13.638903 0.000003 -0.000000 3.567996 2.101556 -6.212045 -0.633629 -0.000005 0.000000 8.296391 131.311917 -187.709950 217.238784 -0.000005 -0.000004 2.173908 -1.408338 9.602691 -3.531567 1.927605 0.221409 6.048993 -21.907777 1.853724 7.920196 4.959697 -0.000010 0.000004 143.417498 196.381818 86.739243 0.000001 -0.000002 -8.654195 66.733585 -17.076228 16.537715 -0.000000 -0.000005 -13.864102 3873.200290 -158.933434 238.179843 -3.155704 -0.764996 6.687802 43.732561 10.415873 -4.984855 -3.592899 -0.000002 0.000000 32.739887 -22.363351 40.626088 -0.000008 0.000002 -10.352400 -181.098969 -127.055862 -163.456945 0.000005 -0.000001 -12.750300 80.267236 -4.537943 67.827774 2.460592 -0.518107 -2.735508 91.450024 -35.256846 70.857113 -0.000006 -0.000005 -17.005901 -166.419977 166.665891 -174.936362 -0.000003 -0.000004 -19.194395 460.271149 97.656727 -141.840285 -3.115507 -0.679602 -2.320308 -78.342099 -44.032782 -78.067047 0.000001 -0.000008 -17.680395 -53.513091 166.701108 -236.215044 0.000002 0.000002 -16.993793 347.057894 54.932876 -100.468886
-19.643200 66.222801 4.699196 4031.025089 -57.708480 -3.978270 -0.201597 0.334101 6.453211 -26.623278 34.926384 13.612433 -0.000001 -0.000004 3.567999 2.058378 -6.222103 -0.638901 0.000000 0.000006 8.296396 131.283981 -187.701808 217.218949 -0.000000 0.000004 2.173895 -1.396289 9.621612 -3.502394 1.927601 0.221407 6.048994 -21.951364 1.927170 7.902128 4.959700 -0.000007 0.000010 143.385465 196.488382 86.680483 -0.000000 0.000003 -8.654203 66.846549 -17.081173 16.598765 -0.000003 -0.000001 -13.864098 3873.488798 -159.236517 237.934776 -3.155701 -0.764996 6.687799 43.796583 10.426764 -5.028992 -3.592890 -0.000005 0.000002 32.610837 -22.394908 40.629080 0.000003 -0.000012 -10.352395 -181.024342 -127.018050 -163.429625 0.000001 0.000002 -12.750301 80.312253 -4.593423 67.764527 2.460599 -0.518107 -2.735503 91.407090 -35.265322 70.797663 0.000003 0.000002 -17.005901 -166.553480 166.660659 -174.917825 -0.000006 -0.000008 -19.194395 460.696369 97.698309 -142.361237 -3.115491 -0.679602 -2.320302 -78.334060 -44.024520 -78.024222 0.000006 0.000003 -17.680401 -53.433912 166.828395 -236.202476 0.000002 -0.000004 -16.993788 346.928476 54.907238 -100.433936
-19.644199 66.221191 4.698101 4031.027712 -57.723015 -3.971209 -0.201604 0.334098 6.453206 -26.525950 34.977231 13.572433 0.000005 0.000011 3.567996 1.995841 -6.221000 -0.645493 0.000006 -0.000004 8.296402 131.257398 -187.692806 217.199674 -0.000002 0.000000 2.173907 -1.399713 9.647027 -3.488900 1.927606 0.221402 6.048998 -21.974511 1.979429 7.857754 4.959699 -0.000000 -0.000004 143.344292 196.607678 86.657848 0.000008 -0.000006 -8.654199 66.975496 -17.119768 16.681393 0.000002 0.000004 -13.864099 3873.443773 -159.130253 237.984445 -3.155700 -0.765000 6.687803 43.851976 10.419393 -5.060203 -3.592907 -0.000006 0.000001 32.473875 -22.422140 40.630494 -0.000003 0.000000 -10.352399 -180.976066 -126.957453 -163.420841 0.000005 0.000001 -12.750299 80.383444 -4.615566 67.688158 2.460594 -0.518103 -2.735503 91.346929 -35.291171 70.722395 -0.000004 0.000000 -17.005901 -166.616154 166.662572 -174.898728 -0.000003 -0.000002 -19.194397 460.914006 97.705549 -142.630674 -3.115500 -0.679599 -2.320299 -78.338725 -44.008654 -77.973938 0.000000 -0.000007 -17.680397 -53.315036 167.021484 -236.203842 0.000000 -0.000005 -16.993792 346.701850 54.859031 -100.412728
-19.646297 66.220505 4.696392 4031.056125 -57.737945 -3.947851 -0.201602 0.334100 6.453206 -26.435014 35.034233 13.530937 0.000002 -0.000002 3.567996 1.921517 -6.206917 -0.652519 0.000008 0.000003 8.296400 131.242563 -187.681154 217.185577 -0.000000 -0.000003 2.173907 -1.420172 9.679895 -3.475865 1.927604 0.221398 6.048993 -21.955708 1.994374 7.771935 4.959701 -0.000005 0.000000 143.283982 196.744651 86.693317 0.000001 0.000000 -8.654200 67.022707 -17.223599 16.801214 -0.000002 -0.000006 -13.864102 3873.452516 -158.941316 238.058157 -3.155698 -0.764997 6.687801 43.896215 10.400922 -5.071110 -3.592896 -0.000002 0.000007 32.298571 -22.469306 40.643939 0.000002 0.000002 -10.352400 -181.076470 -126.846011 -163.606185 0.000002 -0.000007 -12.750298 80.572210 -4.619334 67.645941 2.460603 -0.518103 -2.735501 91.261525 -35.323519 70.637407 -0.000002 0.000002 -17.005901 -166.737198 166.628270 -174.940939 -0.000005 0.000001 -19.194401 461.599156 97.832139 -143.149878 -3.115492 -0.679594 -2.320303 -78.354967 -43.995424 -77.923907 -0.000003 -0.000007 -17.680401 -53.188486 167.212962 -236.213568 0.000001 0.000002 -16.993792 346.418452 54.830935 -100.335137
-19.649803 66.220001 4.694798 4031.102461 -57.754802 -3.916100 -0.201609 0.334101 6.453206 -26.330685 35.105963 13.472444 0.000006 -0.000001 3.567995 1.835364 -6.181968 -0.660149 -0.000006 -0.000008 8.296400 131.227646 -187.651429 217.179798 -0.000000 -0.000004 2.173907 -1.482530 9.684958 -3.542691 1.927598 0.221400 6.048999 -21.901992 1.965832 7.667685 4.959706 -0.000008 0.000002 143.204615 196.850587 86.786064 -0.000004 -0.000006 -8.654196 67.088222 -17.314504 16.905338 0.000004 0.000003 -13.864098 3873.429348 -158.800163 238.338194 -3.155709 -0.765006 6.687804 43.980039 10.434757 -5.076627 -3.592899 -0.000004 0.000003 32.028796 -22.595461 40.623274 -0.000001 -0.000001 -10.352400 -181.044423 -126.725062 -163.723459 0.000008 0.000001 -12.750294 80.773127 -4.602346 67.652409 2.460593 -0.518100 -2.735503 91.160090 -35.353814 70.543280 -0.000005 0.000003 -17.005901 -166.808874 166.599789 -174.982534 -0.000005 -0.000004 -19.194405 461.696254 97.893720 -143.064746 -3.115504 -0.679593 -2.320302 -78.361121 -43.996571 -77.861684 -0.000007 -0.000008 -17.680401 -53.065253 167.393238 -236.220562 0.000001 -0.000001 -16.993793 346.136638 54.806111 -100.236175
